<svg width="20" height="20" viewBox="0 0 20 20" fill="none" xmlns="http://www.w3.org/2000/svg">
<path d="M10.8478 19.1304C10.8044 19.1304 10.7609 19.1304 10.7174 19.1087C10.3261 19.0435 10.0218 18.7391 10 18.3478L9.23915 10.7826L1.65219 10.0217C1.26089 9.97826 0.934803 9.67391 0.891324 9.30435C0.826107 8.91304 1.0435 8.54348 1.39132 8.36956L17.9131 0.95652C18.2391 0.804346 18.6305 0.869564 18.8913 1.13043C19.1522 1.3913 19.2174 1.78261 19.0652 2.10869L11.6522 18.6304C11.5 18.9348 11.1739 19.1304 10.8478 19.1304ZM5.06524 8.63043L10.087 9.13043C10.5 9.17391 10.8261 9.5 10.8696 9.91304L11.3913 14.9348L16.5218 3.47826L5.06524 8.63043Z" fill="#67AAEF"/>
</svg>
