<svg width="20" height="20" viewBox="0 0 20 20" fill="none" xmlns="http://www.w3.org/2000/svg">
<g clip-path="url(#clip0)">
<path d="M1.65647 2.51148C1.85958 2.49507 2.06346 2.50132 2.26735 2.50054C7.55586 2.50132 12.8452 2.49976 18.1344 2.50132C18.8133 2.4857 19.4773 2.88253 19.7866 3.48716C20.2124 4.25114 19.9749 5.30728 19.2367 5.78926C16.5682 7.57423 13.8935 9.35218 11.2227 11.1348C10.5938 11.6504 9.63846 11.7379 8.96431 11.2574C6.23178 9.43498 3.49769 7.61486 0.766721 5.79082C0.208185 5.41977 -0.0925647 4.71125 0.0253918 4.05116C0.140224 3.24812 0.847181 2.58022 1.65647 2.51148Z" fill="#67AAEF"/>
<path d="M0.0003389 6.6875C2.78208 8.54981 5.57007 10.4043 8.35728 12.2604C9.3275 12.9103 10.6766 12.9095 11.646 12.2588C14.4317 10.4043 17.2181 8.55137 19.9983 6.68828C19.9967 9.69188 20.0029 12.6963 19.9951 15.6999C19.9873 16.6412 19.1515 17.4755 18.2094 17.4762C12.7381 17.4817 7.26599 17.4809 1.79468 17.477C0.851032 17.4762 0.00736942 16.6419 0.00346357 15.6967C-0.00356695 12.6939 0.0026824 9.69032 0.0003389 6.6875Z" fill="#67AAEF"/>
</g>
<defs>
<clipPath id="clip0">
<rect width="20" height="20" fill="white"/>
</clipPath>
</defs>
</svg>
