<svg width="20" height="20" viewBox="0 0 20 20" fill="none" xmlns="http://www.w3.org/2000/svg">
<g clip-path="url(#clip0)">
<path d="M17.5 8.7V6.1H16.25V8.7H13.75V10H16.25V12.6H17.5V10H20V8.7H17.5ZM6.25 8.7V11.3H9.786C9.5266 12.0599 9.04751 12.7176 8.41443 13.1831C7.78136 13.6486 7.02532 13.899 6.25 13.9C5.25584 13.8986 4.30279 13.4873 3.59981 12.7562C2.89684 12.0251 2.50132 11.0339 2.5 10C2.50132 8.96608 2.89684 7.9749 3.59981 7.2438C4.30279 6.51271 5.25584 6.10138 6.25 6.1C7.146 6.1 8.009 6.43384 8.679 7.0412L10.32 5.0808C9.19135 4.0601 7.74569 3.4986 6.25 3.5C4.59297 3.50193 3.00433 4.18737 1.83263 5.40594C0.660928 6.6245 0.00185277 8.27669 0 10C0.00185277 11.7233 0.660928 13.3755 1.83263 14.5941C3.00433 15.8126 4.59297 16.4981 6.25 16.5C7.90703 16.4981 9.49567 15.8126 10.6674 14.5941C11.8391 13.3755 12.4981 11.7233 12.5 10V8.7H6.25Z" fill="#67AAEF"/>
</g>
<defs>
<clipPath id="clip0">
<rect width="20" height="20" fill="white"/>
</clipPath>
</defs>
</svg>
