<svg width="20" height="20" viewBox="0 0 20 20" fill="none" xmlns="http://www.w3.org/2000/svg">
<g clip-path="url(#clip0)">
<path d="M20 4.97831C20 4.95657 20 4.91309 20 4.89135C20 4.86961 20 4.84787 20 4.82613C20 4.8044 19.9782 4.78266 19.9782 4.73918C19.9782 4.71744 19.9565 4.67396 19.9565 4.65222C19.9565 4.63048 19.9348 4.60874 19.913 4.587C19.8913 4.56527 19.8913 4.52179 19.8695 4.50005V4.47831C19.8478 4.45657 19.8478 4.45657 19.8261 4.43483C19.8043 4.41309 19.7826 4.39135 19.7608 4.36961C19.7391 4.34787 19.7174 4.32613 19.6956 4.32613C19.6739 4.3044 19.6522 4.28266 19.6304 4.28266C19.6087 4.26092 19.5869 4.26092 19.5652 4.23918C19.5435 4.21744 19.5217 4.21744 19.5 4.1957C19.4782 4.1957 19.4348 4.17396 19.413 4.17396C19.3913 4.17396 19.3695 4.15222 19.3261 4.15222C19.3043 4.15222 19.2608 4.15222 19.2391 4.15222C19.2174 4.15222 19.1956 4.15222 19.1739 4.15222H0.869544C0.847805 4.15222 0.826066 4.15222 0.804327 4.15222C0.782587 4.15222 0.739109 4.15222 0.71737 4.15222C0.695631 4.15222 0.673892 4.17396 0.630414 4.17396C0.608674 4.17396 0.565196 4.1957 0.543457 4.1957C0.521718 4.1957 0.499979 4.21744 0.47824 4.23918C0.4565 4.26092 0.434761 4.26092 0.413022 4.28266C0.391283 4.3044 0.369544 4.3044 0.347805 4.32613C0.326066 4.34787 0.304327 4.36961 0.282587 4.36961C0.260848 4.39135 0.239109 4.41309 0.21737 4.43483C0.195631 4.45657 0.195631 4.45657 0.173892 4.47831V4.50005C0.152153 4.52179 0.130414 4.56527 0.130414 4.587C0.108674 4.60874 0.108674 4.63048 0.0869353 4.65222C0.0651962 4.67396 0.0651962 4.6957 0.0651962 4.73918C0.0651962 4.76092 0.043457 4.78266 0.043457 4.82613C0.043457 4.84787 0.043457 4.86961 0.043457 4.89135C0.043457 4.91309 0.043457 4.95657 0.043457 4.97831V5.00005V15C0.043457 15.4783 0.434761 15.8696 0.913022 15.8696H19.1739C19.6522 15.8696 20.0435 15.4783 20.0435 15L20 4.97831C20 4.97831 20 5.00005 20 4.97831ZM16.5 5.86961L9.99998 10.6957L3.49998 5.86961H16.5ZM1.73911 14.1305V6.73918L9.47824 12.4783C9.63041 12.587 9.80433 12.6522 9.99998 12.6522C10.1956 12.6522 10.3695 12.587 10.5217 12.4783L18.2608 6.73918V14.1305H1.73911Z" fill="#67AAEF"/>
</g>
<defs>
<clipPath id="clip0">
<rect width="20" height="20" fill="white"/>
</clipPath>
</defs>
</svg>
