<svg width="20" height="20" viewBox="0 0 20 20" fill="none" xmlns="http://www.w3.org/2000/svg">
<path d="M17.7391 0.652136C17.5217 0.521701 17.2609 0.499962 17.0435 0.608658L12.4565 2.76083L7.84783 0.608658C7.82609 0.608658 7.82609 0.608658 7.80435 0.586919C7.78261 0.56518 7.73914 0.56518 7.7174 0.56518C7.69566 0.56518 7.65218 0.543441 7.63044 0.543441C7.6087 0.543441 7.56522 0.543441 7.54348 0.543441C7.52174 0.543441 7.47827 0.543441 7.45653 0.543441C7.43479 0.543441 7.39131 0.543441 7.36957 0.56518C7.34783 0.56518 7.30435 0.586919 7.28261 0.586919C7.26088 0.586919 7.26087 0.586919 7.23914 0.608658L2.23914 2.91301C1.95653 3.04344 1.73914 3.30431 1.73914 3.60866V18.6956C1.73914 18.9565 1.93479 19.1956 2.15218 19.3478C2.28261 19.4347 2.43479 19.4565 2.58696 19.4565C2.69566 19.4565 2.82609 19.4347 2.91305 19.3913L7.52174 17.2391L12.1304 19.3913C12.1739 19.413 12.2174 19.4347 12.2609 19.4347C12.2826 19.4347 12.2826 19.4347 12.3044 19.4347C12.3478 19.4347 12.3913 19.4565 12.4565 19.4565C12.5217 19.4565 12.5435 19.4565 12.6087 19.4347C12.6304 19.4347 12.6304 19.4347 12.6522 19.4347C12.6957 19.413 12.7391 19.413 12.7826 19.3913L17.6522 17.0869C17.913 16.9565 18.0435 16.6956 18.0435 16.3913V1.30431C18.0435 1.04344 17.9565 0.80431 17.7391 0.652136ZM11.7391 17.5L8.26088 15.913V2.49996L11.7391 4.08692V17.5ZM3.26087 4.08692L6.73914 2.49996V15.913L3.26087 17.5V4.08692ZM16.5217 15.913L13.2609 17.5V4.08692L16.5217 2.49996V15.913Z" fill="#67AAEF"/>
</svg>
