<svg width="20" height="20" viewBox="0 0 20 20" fill="none" xmlns="http://www.w3.org/2000/svg">
<path d="M19.4473 2.75444C19.4253 2.73245 19.4253 2.73245 19.4033 2.71045L17.0269 0.642742C16.6969 0.334786 16.2568 0.180807 15.7727 0.224801C15.3547 0.268795 14.9366 0.44477 14.6286 0.752727C14.6066 0.774724 14.5845 0.79672 14.5625 0.818717L12.2302 3.7663C11.6141 4.42621 11.6361 5.43807 12.2742 6.07598C12.3182 6.11997 12.3622 6.16396 12.4062 6.18596L13.5944 6.97785C13.5064 7.39579 12.8903 8.58362 10.712 10.7613C8.55565 12.917 7.34547 13.5329 6.94941 13.6209L6.1573 12.4331C6.13529 12.3891 6.09129 12.3451 6.04728 12.3011C5.40919 11.6632 4.37503 11.6632 3.73694 12.2571L0.810502 14.5888C0.788499 14.6108 0.766496 14.6328 0.744493 14.6548C0.0843946 15.3147 0.0403881 16.4145 0.634476 17.0524L2.70278 19.4061C2.72479 19.4281 2.72479 19.4281 2.74679 19.4501C3.14285 19.846 3.75894 20 4.44104 20C5.65122 20 7.03743 19.5161 7.76354 19.2301C9.17174 18.6802 11.9222 17.3384 14.6506 14.6108C16.6749 12.5871 18.3031 10.1454 19.2712 7.72574C19.6673 6.6259 20.5914 3.89828 19.4473 2.75444ZM13.3744 13.4009C9.30376 17.4704 4.72708 18.5922 3.95697 18.2183L1.95467 15.9086L4.8151 13.6429L5.58521 14.8087C5.60721 14.8307 5.60721 14.8527 5.62922 14.8747C5.89326 15.2047 6.26731 15.3807 6.70738 15.4027C7.12544 15.4247 8.42363 15.4906 11.9222 11.9931C12.7803 11.1353 15.4207 8.49564 15.3327 6.77988C15.3107 6.33994 15.1126 5.96599 14.8046 5.70203C14.7826 5.68003 14.7606 5.65804 14.7386 5.65804L13.6164 4.86615L15.8827 1.98455L18.1711 3.98627C18.5671 4.75616 17.445 9.33152 13.3744 13.4009Z" fill="#67AAEF"/>
</svg>
