<svg width="120" height="9" viewBox="0 0 120 9" fill="none" xmlns="http://www.w3.org/2000/svg">
<path d="M1.31561 0.172564C5.38206 -0.447509 8.7608 2.082 11.7708 4.37528C14.7409 6.67841 19.206 6.29456 21.9468 3.82411C25.0066 1.20602 28.9934 -0.61483 33.1196 0.261146C37.7741 0.684371 40.3754 5.74338 45.0698 5.89102C50.2326 6.36345 52.9934 0.674528 57.9369 0.251304C62.0831 -0.624673 66.0399 1.27492 69.1096 3.87332C72.0698 6.53078 76.8638 6.57014 79.8439 3.94222C82.9336 1.32413 86.8804 -0.634515 91.0664 0.251304C95.701 0.605631 98.2724 5.54653 102.877 5.87133C108.449 6.54062 111.359 0.0741406 116.841 0.15288C118.515 -0.388454 119.781 0.556419 120 2.21979C117.518 3.48946 114.419 3.37135 112.326 5.39889C109.296 8.10556 105.169 9.65083 101.083 8.73548C96.4286 8.12525 93.7874 2.85955 88.8837 3.15482C85.6944 3.01703 83.412 5.48748 80.9601 7.08195C78.1296 9.07997 74.3522 9.3654 71.0631 8.49926C67.0066 7.42644 64.4651 2.93829 59.9701 3.15482C55.2159 2.9875 52.6246 8.03667 48.1096 8.70595C44.2625 9.57209 40.206 8.41068 37.2957 5.83196C34.6545 3.39104 30.5382 2.15089 27.2392 4.07017C24.0897 6.0485 21.1794 9.03075 17.1528 8.94217C13.3156 9.37524 9.96678 7.30833 7.14618 5.0052C5.13289 3.26309 2.28239 3.43041 0 2.23948C0.328904 1.71783 0.986711 0.684371 1.31561 0.172564Z" fill="#010101"/>
</svg>
